<?xml version="1.0" encoding="utf-8"?>
<!-- Generator: Adobe Illustrator 15.0.0, SVG Export Plug-In . SVG Version: 6.00 Build 0)  -->
<!DOCTYPE svg PUBLIC "-//W3C//DTD SVG 1.1//EN" "http://www.w3.org/Graphics/SVG/1.1/DTD/svg11.dtd">
<svg version="1.1" id="Layer_1" xmlns="http://www.w3.org/2000/svg" xmlns:xlink="http://www.w3.org/1999/xlink" x="0px" y="0px"
	 width="800px" height="270px" viewBox="0 0 800 270" enable-background="new 0 0 800 270" xml:space="preserve">
<polygon fill="#13B5EA" points="102.01,128.999 104.833,111.831 36.312,111.831 41.442,80.62 116.75,80.62 119.8,62.064 
	22.784,62.064 2.827,183.444 101.54,183.444 104.589,164.891 27.584,164.891 33.489,128.999 "/>
<polygon fill="#13B5EA" points="134.899,62.065 114.943,183.444 135.805,183.444 155.761,62.065 "/>
<polygon fill="#13B5EA" points="169.902,79.233 190.936,79.233 193.757,62.065 172.726,62.065 "/>
<polygon fill="#13B5EA" points="152.769,183.444 173.798,183.444 188.854,91.891 167.821,91.891 "/>
<path fill="#13B5EA" d="M241.799,71.083h-16.453l-7.66,20.806h-18.317l-2.769,16.82h18.319l-8.239,50.114
	c-2.823,17.165,3.585,24.621,20.034,24.621h29.861l2.792-16.993H237.65c-8.646,0-11.048-2.947-9.592-11.791l7.556-45.951h33.25
	l2.764-16.82h-33.251L241.799,71.083z"/>
<path fill="#13B5EA" d="M351.172,91.891H312.5c-19.844,0-29.494,8.149-32.887,28.781l-5.588,33.988
	c-3.393,20.634,3.579,28.784,23.423,28.784h42.741c16.283,0,25.368-7.802,28.132-24.621l1.285-7.805h-19.848l-0.656,3.988
	c-1.394,8.497-5.158,11.793-13.467,11.793h-28.497c-11.026,0-14.016-3.469-12.166-14.741l1.914-11.613h74.457l3.249-19.773
	C377.988,100.041,371.014,91.891,351.172,91.891 M354.523,122.063l-0.801,4.856h-54.613l0.801-4.856
	c1.853-11.271,5.986-14.739,17.009-14.739h25.438C353.385,107.323,356.375,110.792,354.523,122.063"/>
<path fill="#FFFFFF" d="M790.1,12.436c-5.067-5.939-12.474-9.344-20.321-9.344H665.366c-13.327,0-25.004,9.917-27.171,23.07
	l-3.663,22.274h10.974h10.967l3.014-18.328l0.038-0.252c0.476-2.87,3.184-5.197,6.057-5.197h0.253h104.411h0.255
	c2.871,0,4.816,2.328,4.344,5.197l-0.041,0.252l-13.938,84.778l-17.416,105.916c-0.471,2.871-3.183,5.198-6.054,5.198H632.479
	c-2.873,0-4.816-2.325-4.346-5.198l2.88-17.507h-10.97h-10.969l-5.486,33.372c-1.282,7.772,0.905,15.654,5.99,21.619
	c5.063,5.94,12.474,9.348,20.319,9.348h104.415c13.326,0,25.004-9.918,27.169-23.07l34.61-210.506
	C797.368,26.281,795.186,18.401,790.1,12.436 M683.313,235.873c5.337,0,8.913,4.564,7.988,10.193
	c-0.926,5.628-6.004,10.19-11.341,10.19c-5.336,0-8.912-4.563-7.989-10.19C672.898,240.438,677.973,235.873,683.313,235.873"/>
<path fill="#FFFFFF" d="M483.969,62.065h-61.397c-16.453,0-25.368,7.802-28.135,24.624l-2.595,15.778
	c-2.735,16.648,3.305,23.237,20.038,24.623l53.727,5.378c8.678,0.866,10.992,3.291,9.599,11.789l-1.626,9.884
	c-1.396,8.496-5.16,11.79-13.474,11.79h-47.827c-8.653,0-11.051-2.947-9.596-11.79l1.026-6.244h-21.034l-1.793,10.929
	c-2.765,16.817,3.583,24.619,20.034,24.619h65.472c16.28,0,25.365-7.802,28.132-24.619l3.278-19.943
	c2.734-16.646-3.335-23.063-20.036-24.624l-53.761-5.201c-8.676-0.869-10.989-3.296-9.592-11.791l0.969-5.896
	c1.454-8.844,4.822-11.791,13.473-11.791h43.76c8.31,0,10.992,3.292,9.592,11.791l-0.624,3.815h21.031l1.394-8.497
	C506.771,69.868,500.25,62.065,483.969,62.065"/>
<path fill="#FFFFFF" d="M587.28,91.891h-38.675c-16.28,0-25.367,7.804-28.13,24.624l-0.971,5.893h19.845l0.542-3.292
	c1.455-8.846,5.158-11.793,13.472-11.793h24.425c11.025,0,14.017,3.467,12.193,14.565l-1.486,9.014h-53.424
	c-14.08,0-22.201,7.111-24.569,21.505l-1.565,9.535c-2.366,14.392,3.418,21.502,17.493,21.502h20.524
	c7.973,0,13.994-0.518,18.096-1.735c4.099-1.212,8.963-3.988,14.933-8.322l3.258-2.253l0.351,12.311h16.792l10.319-62.772
	C614.094,100.041,607.121,91.891,587.28,91.891 M584.079,157.782l-8.772,5.896c-5.518,3.64-11.91,5.375-19.543,5.375h-17.297
	c-7.633,0-9.75-2.602-8.47-10.404l0.801-4.854c1.256-7.63,4.255-10.403,11.888-10.403h43.758L584.079,157.782z"/>
<polygon fill="#FFFFFF" points="634.347,183.444 654.302,62.066 632.295,62.066 612.341,183.444 "/>
<path fill="#FFFFFF" d="M672.788,140.445h67.697h6.765l3.248-19.773c1.71-10.405,0.778-17.628-3.108-22.239
	c-3.813-4.531-10.479-6.542-20.314-6.542h-38.669c-19.847,0-29.494,8.149-32.89,28.781l-5.586,33.988
	c-3.396,20.634,3.577,28.784,23.421,28.784h42.743c7.61,0,13.628-1.73,18.184-5.262c5.189-4.029,8.474-10.403,9.949-19.359
	l1.282-7.805h-6.764h-13.082l-0.658,3.988c-1.394,8.497-5.158,11.793-13.467,11.793h-28.497c-11.025,0-14.019-3.469-12.161-14.741
	L672.788,140.445z M675.813,122.063c1.853-11.271,5.985-14.739,17.01-14.739h25.439c11.026,0,14.017,3.468,12.164,14.739
	l-0.801,4.856h-54.613L675.813,122.063z"/>
</svg>
